<?xml version="1.0" encoding="UTF-8"?>
<svg xmlns="http://www.w3.org/2000/svg" xmlns:xlink="http://www.w3.org/1999/xlink" viewBox="0 0 1415.08 1006.62">
  <defs>
    <style>
      .cls-1 {
        fill: #f4cb45;
      }

      .cls-2 {
        letter-spacing: .1em;
        stroke-width: .4px;
      }

      .cls-2, .cls-3, .cls-4, .cls-5, .cls-6, .cls-7, .cls-8, .cls-9, .cls-10 {
        fill: none;
        stroke-miterlimit: 10;
      }

      .cls-2, .cls-4 {
        font-family: Bebas, Bebas;
        font-size: 31.74px;
      }

      .cls-2, .cls-4, .cls-8 {
        stroke: #6c00d3;
      }

      .cls-3 {
        stroke: #4f008c;
        stroke-width: .75px;
      }

      .cls-11 {
        fill: #e22d65;
      }

      .cls-4 {
        stroke-width: .5px;
      }

      .cls-5, .cls-10 {
        stroke: #fff;
      }

      .cls-12 {
        fill: #310051;
      }

      .cls-13 {
        fill: #ff8080;
      }

      .cls-6, .cls-7, .cls-9 {
        stroke: #c28dff;
      }

      .cls-14 {
        fill: #f4a945;
      }

      .cls-15 {
        fill: #ffa9a8;
      }

      .cls-16 {
        fill: url(#linear-gradient);
        mix-blend-mode: color-dodge;
      }

      .cls-17 {
        isolation: isolate;
      }

      .cls-7 {
        stroke-width: 3px;
      }

      .cls-18, .cls-19 {
        fill: #fff;
      }

      .cls-20 {
        font-family: BebasNeueBold, 'Bebas Neue';
        font-size: 49.04px;
      }

      .cls-20, .cls-21 {
        fill: #c28dff;
      }

      .cls-9 {
        stroke-width: 4px;
      }

      .cls-19 {
        mix-blend-mode: screen;
        opacity: .5;
      }

      .cls-22 {
        fill: #6c00d3;
      }

      .cls-23 {
        fill: #f48989;
      }

      .cls-24 {
        opacity: .39;
      }

      .cls-25, .cls-26 {
        fill: #c5dbfc;
      }

      .cls-27 {
        fill: #4f008c;
      }

      .cls-28, .cls-26 {
        mix-blend-mode: soft-light;
      }

      .cls-29 {
        letter-spacing: .1em;
      }

      .cls-30 {
        letter-spacing: .1em;
      }

      .cls-31 {
        letter-spacing: .11em;
      }

      .cls-32 {
        fill: #ff5757;
      }

      .cls-33 {
        letter-spacing: .1em;
      }

      .cls-10 {
        stroke-width: 2px;
      }
    </style>
    <linearGradient id="linear-gradient" x1="707.53" y1="387.59" x2="707.53" y2="971.13" gradientUnits="userSpaceOnUse">
      <stop offset="0" stop-color="#fff" stop-opacity="0"/>
      <stop offset=".1" stop-color="#fafeff" stop-opacity=".02"/>
      <stop offset=".22" stop-color="#ecfeff" stop-opacity=".08"/>
      <stop offset=".36" stop-color="#d6feff" stop-opacity=".19"/>
      <stop offset=".51" stop-color="#b6fdff" stop-opacity=".33"/>
      <stop offset=".67" stop-color="#8efcff" stop-opacity=".52"/>
      <stop offset=".83" stop-color="#5cfbff" stop-opacity=".74"/>
      <stop offset="1" stop-color="#25faff"/>
    </linearGradient>
  </defs>
  <g class="cls-17">
    <g id="Layer_1" data-name="Layer 1">
      <g>
        <g class="cls-24">
          <line class="cls-3" x1="43.51" y1="190.46" x2="1371.57" y2="190.46"/>
          <line class="cls-3" x1="43.51" y1="303.98" x2="1371.57" y2="303.98"/>
          <line class="cls-3" x1="43.51" y1="417.5" x2="1371.57" y2="417.5"/>
          <line class="cls-3" x1="43.51" y1="531.02" x2="1371.57" y2="531.02"/>
          <line class="cls-3" x1="43.51" y1="644.54" x2="1371.57" y2="644.54"/>
          <line class="cls-3" x1="43.51" y1="758.06" x2="1371.57" y2="758.06"/>
          <line class="cls-3" x1="43.51" y1="871.58" x2="1371.57" y2="871.58"/>
          <line class="cls-3" x1="154.18" y1="971.08" x2="154.18" y2="76.94"/>
          <line class="cls-3" x1="264.85" y1="971.08" x2="264.85" y2="76.94"/>
          <line class="cls-3" x1="375.53" y1="971.08" x2="375.53" y2="76.94"/>
          <line class="cls-3" x1="486.2" y1="971.08" x2="486.2" y2="76.94"/>
          <line class="cls-3" x1="596.87" y1="971.08" x2="596.87" y2="76.94"/>
          <line class="cls-3" x1="707.54" y1="971.08" x2="707.54" y2="76.94"/>
          <line class="cls-3" x1="818.21" y1="971.08" x2="818.21" y2="76.94"/>
          <line class="cls-3" x1="928.88" y1="971.08" x2="928.88" y2="76.94"/>
          <line class="cls-3" x1="1039.56" y1="971.08" x2="1039.56" y2="76.94"/>
          <line class="cls-3" x1="1150.23" y1="971.08" x2="1150.23" y2="76.94"/>
          <line class="cls-3" x1="1260.9" y1="971.08" x2="1260.9" y2="76.94"/>
          <polyline class="cls-3" points="1371.57 971.08 1371.57 76.94 43.51 76.94 43.51 971.08"/>
        </g>
        <g>
          <g>
            <path class="cls-23" d="M530.88,586.03s-26.57,157.46-24.61,165.47c13.15,53.81,42.42,1.37,46.53,11.83,0,0,35.79-145.42,34.32-159.34-5.68-53.69-39.1-64.37-56.23-17.97Z"/>
            <g>
              <path class="cls-15" d="M953.05,364.61s2.28-16.86,16.32-8.6c0,0,8.73-2.69,12.3,4.48,0,0,9.77-.02,10.42,5.13,1.99,15.69-26.28,63.97-26.28,63.97l-38.24-13.77s-11.68-44.39-5.11-52.31c4.12-4.97,11.63,10.8,11.63,10.8,0,0-.38-31.07,5.9-36.87,6.6-6.1,22.42-11.45,24.44-11.47,3.71-.03,14.26,2.83-7.54,17-3.85,2.5-3.85,21.64-3.85,21.64Z"/>
              <g>
                <g>
                  <path class="cls-22" d="M795.36,426.43c51.57,19.4,103.72,167.67,103.72,167.67l-76.19,17,2.02-30.85-37.31-26.2,7.76-127.62Z"/>
                  <path class="cls-22" d="M619.73,426.43c-51.57,19.4-103.72,167.67-103.72,167.67l76.19,17-2.02-30.85,37.31-26.2-7.76-127.62Z"/>
                  <path class="cls-32" d="M636.89,312.2s-18.54-56.31,10.36-64.1c0,0,5.64-18.06,35.98-20.54,30.34-2.48,24.31-20.89,24.31-20.89,0,0,11.09,4.6,9.74,19.48,0,0,15.3-22.66,5.63-39.31,0,0,36.64-1.42,46.02,41.08,0,0,3.77-15.94,0-25.14,0,0,49.62,36.83,9.27,109.43h-141.31Z"/>
                  <rect class="cls-27" x="615.12" y="320.7" width="20.69" height="38.25" rx="10.35" ry="10.35"/>
                  <path class="cls-18" d="M632.15,312.2h14.01v55.25h-14.01c-3.69,0-6.68-2.99-6.68-6.68v-41.89c0-3.69,2.99-6.68,6.68-6.68Z"/>
                  <path class="cls-32" d="M636.89,312.2v45.51c0,5.38,4.15,9.74,9.27,9.74h0v-55.25h-9.27Z"/>
                  <path class="cls-27" d="M795.36,426.43c29.91,18.25,44.58,338.5,44.58,338.5h-132.4v-357.79s63.62,4.53,87.82,19.3Z"/>
                  <path class="cls-27" d="M619.73,426.43c-29.91,18.25-44.58,338.5-44.58,338.5h132.4v-357.79s-63.62,4.53-87.82,19.3Z"/>
                  <rect class="cls-27" x="779.27" y="320.7" width="20.69" height="38.25" rx="10.35" ry="10.35" transform="translate(1579.23 679.64) rotate(180)"/>
                  <path class="cls-18" d="M775.6,312.2h14.01v55.25h-14.01c-3.69,0-6.68-2.99-6.68-6.68v-41.89c0-3.69,2.99-6.68,6.68-6.68Z" transform="translate(1558.54 679.64) rotate(-180)"/>
                  <path class="cls-32" d="M778.2,357.7v-45.51s-9.27,0-9.27,0v55.25s0,0,0,0c5.12,0,9.27-4.36,9.27-9.74Z"/>
                  <path class="cls-10" d="M670.59,418.48s-13.31,56.88,31.46,60.7c44.77,3.81,48.88-39.23,45.47-58.7"/>
                  <path class="cls-15" d="M731.96,408.73l-24.46,5.93-24.46-5.93-2.83,22.88c-2.14,17.3,10.68,32.63,27.29,32.63h0c16.6,0,29.42-15.33,27.29-32.63l-2.83-22.88Z"/>
                  <path class="cls-23" d="M732.38,412.14l-.42-3.41-24.46,5.93-24.46-5.93-2.83,22.88c-.29,2.34-.28,4.65-.05,6.88,43.72-1.28,52.22-26.35,52.22-26.35Z"/>
                  <path class="cls-15" d="M768.85,312.2s-4.18-16.06-17.19-25.24c-5.62-3.97-24.89-5.95-44.16-5.95s-38.54,1.98-44.16,5.95c-13.01,9.18-17.19,25.24-17.19,25.24-5.91,25.5,0,55.25,0,55.25,9.64,26.85,32.98,48.86,61.35,54.31,28.36-5.45,51.78-27.46,61.42-54.31,0,0,5.84-29.75-.08-55.25Z"/>
                  <g>
                    <path class="cls-12" d="M683.41,344.87c-2.01,0-3.64-1.71-3.64-3.83,0-1.38.71-2.59,1.75-3.26-.9-.35-1.87-.57-2.89-.57-4.65,0-8.42,3.96-8.42,8.84s3.77,8.84,8.42,8.84,8.42-3.96,8.42-8.84c0-1.07-.21-2.08-.54-3.03-.64,1.1-1.78,1.84-3.1,1.84Z"/>
                    <path class="cls-12" d="M663.59,327.68l-1.56-5.42c.95-.33,13.81-2.77,30.07-1.02l-.55,5.64c-15.8-1.7-27.85.77-27.96.8Z"/>
                  </g>
                  <g>
                    <path class="cls-12" d="M741.15,344.87c-2.01,0-3.64-1.71-3.64-3.83,0-1.38.71-2.59,1.75-3.26-.9-.35-1.87-.57-2.89-.57-4.65,0-8.42,3.96-8.42,8.84s3.77,8.84,8.42,8.84c4.65,0,8.42-3.96,8.42-8.84,0-1.07-.21-2.08-.54-3.03-.64,1.1-1.78,1.84-3.1,1.84Z"/>
                    <rect class="cls-19" x="657.61" y="331.14" width="40.63" height="29.04" rx="3.89" ry="3.89"/>
                    <path class="cls-12" d="M751.42,327.68c-.11-.03-15.58-1.7-31.4,0l2.89-6.44c16.25-1.75,29.12.68,30.07,1.02l-1.71,5.38.85-2.69-.7,2.73Z"/>
                  </g>
                  <rect class="cls-18" x="636.89" y="335.12" width="20.72" height="10.94"/>
                  <rect class="cls-18" x="653.34" y="335.12" width="4.27" height="21.07"/>
                  <polyline class="cls-5" points="638.28 367.44 638.28 392.47 689.3 392.47"/>
                  <path class="cls-32" d="M647.25,308.93s40.93,10.35,70.15-15.62c29.22-25.97-9.89-49.58-9.89-49.58,0,0-75.56,16.59-60.26,65.2Z"/>
                  <path class="cls-32" d="M726.65,281.01s11.31,28.05,42.94,34.76l-2.08-28.18s-8.6-15.05-12.14-17.18-23.15-8.99-27.42-10.09c-4.27-1.1-8.99-2.12-13.2-.89s-13.49,3.9-13.49,3.9l25.38,17.68Z"/>
                  <rect class="cls-18" x="674.46" y="388.22" width="17.64" height="8.5"/>
                  <path class="cls-23" d="M708.6,345.66s-10.2,21.25-6.49,22.85,13.49.89,14.5,0-8.01-22.85-8.01-22.85Z"/>
                  <path class="cls-18" d="M701.27,388.22c10.58,3.05,18.94.85,25.45-8.26-3.54,10.93-16.16,14.5-25.45,8.26h0Z"/>
                  <path class="cls-13" d="M680,310.03s41.71.28,58.9-26.99c17.19-27.27,0-56.31,0-56.31,0,0,2.98,27.09-9.61,36.3,0,0,1.35-11.69-4.66-17.88,0,0-4.52,49.01-44.63,64.88Z"/>
                </g>
                <g>
                  <path class="cls-15" d="M828.87,609.96s36.71,21.1,52.31,14.98c28.38-11.13,92.97-213.94,92.97-213.94l-46.58,4.82-64.63,125.35-34.07,68.79Z"/>
                  <path class="cls-23" d="M828.87,609.96l34.07-68.79-19.65,76.03c-8.28-3.74-14.42-7.25-14.42-7.25Z"/>
                </g>
              </g>
            </g>
          </g>
          <polygon class="cls-16" points="1076.72 258.86 727.96 258.86 687.11 258.86 338.35 258.86 527.07 930.47 887.99 930.47 1076.72 258.86"/>
          <g class="cls-28">
            <g>
              <path class="cls-25" d="M707.54,894.86c-102.67,0-186.19-87.74-186.19-195.58s83.53-195.58,186.19-195.58,186.19,87.74,186.19,195.58-83.53,195.58-186.19,195.58ZM707.54,508.3c-100.25,0-181.81,85.67-181.81,190.98s81.56,190.98,181.81,190.98,181.81-85.67,181.81-190.98-81.56-190.98-181.81-190.98Z"/>
              <path class="cls-25" d="M919.94,699.28h-11.89c0-116.13-89.94-210.62-200.5-210.62v-12.49c117.11,0,212.39,100.09,212.39,223.11Z"/>
              <path class="cls-25" d="M707.54,922.39c-117.12,0-212.4-100.09-212.4-223.11h11.89c0,116.13,89.95,210.62,200.51,210.62v12.49Z"/>
              <path class="cls-25" d="M707.54,603.46c-50.3,0-91.22,42.98-91.22,95.82s40.92,95.82,91.22,95.82,91.22-42.98,91.22-95.82-40.92-95.82-91.22-95.82ZM707.54,780.37c-42.57,0-77.2-36.38-77.2-81.1s34.63-81.1,77.2-81.1,77.2,36.38,77.2,81.1-34.63,81.1-77.2,81.1Z"/>
              <path class="cls-25" d="M707.54,559.4c-73.43,0-133.17,62.75-133.17,139.88s59.74,139.88,133.17,139.88,133.17-62.75,133.17-139.88-59.74-139.88-133.17-139.88ZM707.54,817.67c-62.15,0-112.71-53.11-112.71-118.39s50.56-118.39,112.71-118.39,112.71,53.11,112.71,118.39-50.56,118.39-112.71,118.39Z"/>
              <g>
                <path class="cls-25" d="M600.22,800.28c-20.07-23.51-33.34-53.52-36.31-86.71h-25.06c3.08,40.43,19.08,77,43.66,105.32l17.71-18.61Z"/>
                <path class="cls-25" d="M563.58,692.01c1.55-34.18,13.79-65.44,33.47-90.05l-17.71-18.61c-24.16,29.45-39.21,67.23-40.82,108.66h25.06Z"/>
                <path class="cls-25" d="M611.39,586.55c23.16-21.82,52.98-35.87,85.89-38.32v-26.33c-39.8,2.52-75.87,19.48-103.6,46.04l17.71,18.61Z"/>
                <path class="cls-25" d="M717.8,521.9v26.33c32.9,2.45,62.73,16.5,85.89,38.32l17.71-18.61c-27.74-26.56-63.8-43.51-103.6-46.04Z"/>
                <path class="cls-25" d="M697.28,850.33c-31.24-2.32-59.76-15.02-82.39-34.98l-17.71,18.61c27.24,24.66,61.97,40.28,100.1,42.7v-26.33Z"/>
                <path class="cls-25" d="M818.04,601.96c19.68,24.61,31.91,55.87,33.47,90.05h25.06c-1.61-41.43-16.65-79.21-40.82-108.66l-17.71,18.61Z"/>
                <path class="cls-25" d="M851.17,713.57c-2.97,33.19-16.24,63.2-36.31,86.71l17.71,18.61c24.58-28.32,40.58-64.89,43.66-105.32h-25.06Z"/>
                <path class="cls-25" d="M800.19,815.35c-22.63,19.96-51.15,32.65-82.39,34.97v26.33c38.13-2.42,72.86-18.03,100.1-42.7l-17.71-18.61Z"/>
              </g>
              <path class="cls-25" d="M737.28,930.47l-4.15-32.55c1.92-.27,3.83-.57,5.73-.9l5.08,32.4c-2.21.38-4.43.73-6.66,1.05ZM757.17,926.68l-6.98-32.01c1.88-.45,3.75-.93,5.61-1.45l7.93,31.77c-2.17.6-4.36,1.16-6.55,1.69ZM776.64,921l-9.73-31.2c1.83-.63,3.65-1.3,5.46-1.99l10.68,30.86c-2.12.81-4.26,1.58-6.41,2.32ZM795.59,913.44l-12.44-30.13c1.78-.81,3.54-1.65,5.29-2.51l13.3,29.72c-2.03,1-4.08,1.97-6.15,2.92ZM813.77,904.1l-15.01-28.8c1.7-.98,3.39-1.98,5.06-3.01l15.81,28.33c-1.93,1.19-3.89,2.35-5.86,3.49ZM831.05,893.07l-17.44-27.25c1.61-1.14,3.21-2.3,4.78-3.49l18.18,26.72c-1.82,1.37-3.66,2.71-5.52,4.02ZM847.29,880.46l-19.7-25.49c1.5-1.28,2.97-2.57,4.43-3.9l20.45,24.84c-1.7,1.55-3.43,3.07-5.18,4.55ZM862.38,866.37l-21.8-23.53c1.37-1.41,2.73-2.83,4.06-4.28l22.51,22.78c-1.56,1.71-3.15,3.38-4.77,5.03ZM876.19,850.91l-23.73-21.38c1.26-1.54,2.49-3.09,3.7-4.67l24.34,20.61c-1.41,1.83-2.85,3.65-4.3,5.44ZM888.62,834.21l-25.46-19.05c1.11-1.64,2.2-3.3,3.26-4.98l26.04,18.18c-1.25,1.98-2.53,3.92-3.83,5.85ZM899.56,816.39l-27.01-16.53c.97-1.75,1.91-3.51,2.84-5.29l27.47,15.68c-1.07,2.07-2.17,4.12-3.29,6.15ZM908.91,797.62l-28.33-13.89c.81-1.83,1.6-3.67,2.36-5.53l28.72,12.99c-.89,2.16-1.8,4.31-2.75,6.44ZM916.6,778.03l-29.42-11.12c.65-1.9,1.28-3.82,1.88-5.75l29.72,10.17c-.7,2.25-1.43,4.48-2.18,6.7ZM922.56,757.74l-30.27-8.22c.49-1.96.94-3.93,1.37-5.92l30.49,7.27c-.5,2.31-1.03,4.59-1.59,6.87ZM926.72,736.98l-30.85-5.3c.31-1.99.59-3.98.84-5.99l31,4.26c-.29,2.36-.62,4.69-.99,7.03Z"/>
              <path class="cls-25" d="M677.8,468.08l4.15,32.55c-1.92.27-3.83.57-5.73.9l-5.08-32.4c2.21-.38,4.43-.73,6.66-1.05ZM657.91,471.88l6.98,32.01c-1.88.45-3.75.93-5.61,1.45l-7.93-31.77c2.17-.6,4.36-1.16,6.55-1.69ZM638.44,477.56l9.73,31.2c-1.83.63-3.65,1.3-5.46,1.99l-10.68-30.86c2.12-.81,4.26-1.58,6.41-2.32ZM619.49,485.12l12.44,30.13c-1.78.81-3.54,1.65-5.29,2.51l-13.3-29.72c2.03-1,4.08-1.97,6.15-2.92ZM601.31,494.46l15.01,28.8c-1.7.98-3.39,1.98-5.06,3.01l-15.81-28.33c1.93-1.19,3.89-2.35,5.86-3.49ZM584.03,505.49l17.44,27.25c-1.61,1.14-3.21,2.3-4.78,3.49l-18.18-26.72c1.82-1.37,3.66-2.71,5.52-4.02ZM567.79,518.1l19.7,25.49c-1.5,1.28-2.97,2.57-4.43,3.9l-20.45-24.84c1.7-1.55,3.43-3.07,5.18-4.55ZM552.7,532.19l21.8,23.53c-1.37,1.41-2.73,2.83-4.06,4.28l-22.51-22.78c1.56-1.71,3.15-3.38,4.77-5.03ZM538.89,547.65l23.73,21.38c-1.26,1.54-2.49,3.09-3.7,4.67l-24.34-20.61c1.41-1.83,2.85-3.65,4.3-5.44ZM526.47,564.35l25.46,19.05c-1.11,1.64-2.2,3.3-3.26,4.98l-26.04-18.18c1.25-1.98,2.53-3.92,3.83-5.85ZM515.52,582.17l27.01,16.53c-.97,1.75-1.91,3.51-2.84,5.29l-27.47-15.68c1.07-2.07,2.17-4.12,3.29-6.15ZM506.17,600.94l28.33,13.89c-.81,1.83-1.6,3.67-2.36,5.53l-28.72-12.99c.89-2.16,1.8-4.31,2.75-6.44ZM498.48,620.53l29.42,11.12c-.65,1.9-1.28,3.82-1.88,5.75l-29.72-10.17c.7-2.25,1.43-4.48,2.18-6.7ZM492.52,640.82l30.27,8.22c-.49,1.96-.94,3.93-1.37,5.92l-30.49-7.27c.5-2.31,1.03-4.59,1.59-6.87ZM488.36,661.58l30.85,5.3c-.31,1.99-.59,3.98-.84,5.99l-31-4.26c.29-2.36.62-4.69.99-7.03Z"/>
            </g>
          </g>
          <g class="cls-28">
            <g>
              <path class="cls-25" d="M678.54,362.26c-8.5,0-15.42-7.27-15.42-16.2s6.92-16.2,15.42-16.2,15.42,7.27,15.42,16.2-6.92,16.2-15.42,16.2ZM678.54,330.25c-8.3,0-15.05,7.09-15.05,15.81s6.75,15.81,15.05,15.81,15.05-7.09,15.05-15.81-6.75-15.81-15.05-15.81Z"/>
              <path class="cls-25" d="M696.13,346.06h-.98c0-9.62-7.45-17.44-16.6-17.44v-1.03c9.7,0,17.59,8.29,17.59,18.47Z"/>
              <path class="cls-25" d="M678.54,364.54c-9.7,0-17.59-8.29-17.59-18.47h.98c0,9.62,7.45,17.44,16.6,17.44v1.03Z"/>
              <g>
                <path class="cls-25" d="M669.65,354.43c-1.66-1.95-2.76-4.43-3.01-7.18h-2.08c.26,3.35,1.58,6.38,3.62,8.72l1.47-1.54Z"/>
                <path class="cls-25" d="M666.62,345.46c.13-2.83,1.14-5.42,2.77-7.46l-1.47-1.54c-2,2.44-3.25,5.57-3.38,9h2.08Z"/>
                <path class="cls-25" d="M670.58,336.73c1.92-1.81,4.39-2.97,7.11-3.17v-2.18c-3.3.21-6.28,1.61-8.58,3.81l1.47,1.54Z"/>
                <path class="cls-25" d="M679.39,331.38v2.18c2.72.2,5.19,1.37,7.11,3.17l1.47-1.54c-2.3-2.2-5.28-3.6-8.58-3.81Z"/>
                <path class="cls-25" d="M677.69,358.57c-2.59-.19-4.95-1.24-6.82-2.9l-1.47,1.54c2.26,2.04,5.13,3.34,8.29,3.54v-2.18Z"/>
                <path class="cls-25" d="M687.69,338c1.63,2.04,2.64,4.63,2.77,7.46h2.08c-.13-3.43-1.38-6.56-3.38-9l-1.47,1.54Z"/>
                <path class="cls-25" d="M690.43,347.25c-.25,2.75-1.34,5.23-3.01,7.18l1.47,1.54c2.03-2.35,3.36-5.37,3.62-8.72h-2.08Z"/>
                <path class="cls-25" d="M686.21,355.67c-1.87,1.65-4.24,2.7-6.82,2.9v2.18c3.16-.2,6.03-1.49,8.29-3.54l-1.47-1.54Z"/>
              </g>
              <path class="cls-25" d="M681,365.21l-.34-2.7c.16-.02.32-.05.47-.07l.42,2.68c-.18.03-.37.06-.55.09ZM682.65,364.89l-.58-2.65c.16-.04.31-.08.46-.12l.66,2.63c-.18.05-.36.1-.54.14ZM684.26,364.42l-.81-2.58c.15-.05.3-.11.45-.16l.88,2.56c-.18.07-.35.13-.53.19ZM685.83,363.8l-1.03-2.49c.15-.07.29-.14.44-.21l1.1,2.46c-.17.08-.34.16-.51.24ZM687.34,363.02l-1.24-2.39c.14-.08.28-.16.42-.25l1.31,2.35c-.16.1-.32.19-.48.29ZM688.77,362.11l-1.44-2.26c.13-.09.27-.19.4-.29l1.51,2.21c-.15.11-.3.22-.46.33ZM690.11,361.07l-1.63-2.11c.12-.11.25-.21.37-.32l1.69,2.06c-.14.13-.28.25-.43.38ZM691.36,359.9l-1.81-1.95c.11-.12.23-.23.34-.35l1.86,1.89c-.13.14-.26.28-.4.42ZM692.51,358.62l-1.97-1.77c.1-.13.21-.26.31-.39l2.02,1.71c-.12.15-.24.3-.36.45ZM693.54,357.24l-2.11-1.58c.09-.14.18-.27.27-.41l2.16,1.51c-.1.16-.21.32-.32.48ZM694.44,355.76l-2.24-1.37c.08-.14.16-.29.23-.44l2.27,1.3c-.09.17-.18.34-.27.51ZM695.22,354.21l-2.35-1.15c.07-.15.13-.3.2-.46l2.38,1.08c-.07.18-.15.36-.23.53ZM695.85,352.58l-2.44-.92c.05-.16.11-.32.16-.48l2.46.84c-.06.19-.12.37-.18.55ZM696.35,350.9l-2.51-.68c.04-.16.08-.33.11-.49l2.52.6c-.04.19-.08.38-.13.57ZM696.69,349.18l-2.55-.44c.03-.16.05-.33.07-.5l2.57.35c-.02.2-.05.39-.08.58Z"/>
              <path class="cls-25" d="M676.08,326.92l.34,2.7c-.16.02-.32.05-.47.07l-.42-2.68c.18-.03.37-.06.55-.09ZM674.43,327.23l.58,2.65c-.16.04-.31.08-.46.12l-.66-2.63c.18-.05.36-.1.54-.14ZM672.82,327.7l.81,2.58c-.15.05-.3.11-.45.16l-.88-2.56c.18-.07.35-.13.53-.19ZM671.25,328.33l1.03,2.49c-.15.07-.29.14-.44.21l-1.1-2.46c.17-.08.34-.16.51-.24ZM669.75,329.1l1.24,2.39c-.14.08-.28.16-.42.25l-1.31-2.35c.16-.1.32-.19.48-.29ZM668.31,330.02l1.44,2.26c-.13.09-.27.19-.4.29l-1.51-2.21c.15-.11.3-.22.46-.33ZM666.97,331.06l1.63,2.11c-.12.11-.25.21-.37.32l-1.69-2.06c.14-.13.28-.25.43-.38ZM665.72,332.23l1.81,1.95c-.11.12-.23.23-.34.35l-1.86-1.89c.13-.14.26-.28.4-.42ZM664.58,333.51l1.97,1.77c-.1.13-.21.26-.31.39l-2.02-1.71c.12-.15.24-.3.36-.45ZM663.55,334.89l2.11,1.58c-.09.14-.18.27-.27.41l-2.16-1.51c.1-.16.21-.32.32-.48ZM662.64,336.37l2.24,1.37c-.08.14-.16.29-.23.44l-2.27-1.3c.09-.17.18-.34.27-.51ZM661.87,337.92l2.35,1.15c-.07.15-.13.3-.2.46l-2.38-1.08c.07-.18.15-.36.23-.53ZM661.23,339.54l2.44.92c-.05.16-.11.32-.16.48l-2.46-.84c.06-.19.12-.37.18-.55ZM660.74,341.22l2.51.68c-.04.16-.08.33-.11.49l-2.52-.6c.04-.19.08-.38.13-.57ZM660.39,342.94l2.55.44c-.03.16-.05.33-.07.5l-2.57-.35c.02-.2.05-.39.08-.58Z"/>
            </g>
          </g>
          <g>
            <rect class="cls-27" x="522.44" y="953.99" width="370.21" height="17.08"/>
            <path class="cls-22" d="M924.23,762.03h-433.37c-5.55,0-9.54,5.61-7.97,11.2l50.8,180.76h347.72l50.8-180.76c1.57-5.59-2.42-11.2-7.97-11.2Z"/>
            <path class="cls-27" d="M483.61,775.8c1.39-2.66,4.04-4.56,7.25-4.56h433.37c3.21,0,5.85,1.9,7.25,4.56l.72-2.57c1.57-5.59-2.42-11.2-7.97-11.2h-433.37c-5.55,0-9.54,5.61-7.97,11.2l.72,2.57Z"/>
            <g>
              <rect class="cls-18" x="562.33" y="946.91" width="25.62" height="14.17"/>
              <rect class="cls-18" x="827.13" y="946.91" width="25.62" height="14.17"/>
            </g>
            <ellipse class="cls-18" cx="707.54" cy="858.01" rx="20.23" ry="21.25"/>
          </g>
          <path class="cls-15" d="M499.27,775.66s-8.05-26.21,9.6-31.16c17.66-4.96,51.83-2.48,57.41-1.42,5.58,1.06,7.95,31.87.52,33.64-7.43,1.77-65.57,12.78-67.53-1.06Z"/>
          <path class="cls-15" d="M566.25,753.75c-.06-.16,11.18-2.67,16.34-2.2,5.17.47,4.5,10.47,4.5,10.47h-20.84v-8.28Z"/>
          <rect class="cls-21" y="971.08" width="1415.08" height="35.55"/>
          <rect class="cls-26" y="971.08" width="1415.08" height="17.77"/>
          <path class="cls-8" d="M234.87,848.32v-106.8c0-12.99,10.03-23.52,22.39-23.52h126.37c12.37,0,22.39,10.53,22.39,23.52v197.5c0,12.99,10.03,23.52,22.39,23.52h94.01"/>
          <g>
            <path class="cls-22" d="M299.88,808.35h-131.93c-3.79,0-6.86,3.23-6.86,7.21l-5.39,67.81c0,8.97,6.92,16.23,15.45,16.23h0c5.71,0,11.02-3.08,14.07-8.15l10.29-17.14c3.05-5.08,8.36-8.15,14.07-8.15h48.68c5.71,0,11.02,3.08,14.07,8.15l10.29,17.14c3.05,5.08,8.36,8.15,14.07,8.15h0c8.54,0,15.45-7.27,15.45-16.23l-5.39-67.81c0-3.98-3.07-7.21-6.86-7.21Z"/>
            <g>
              <g>
                <rect class="cls-21" x="207.65" y="802.65" width="52.54" height="33.44" rx="1.97" ry="1.97"/>
                <g>
                  <rect class="cls-18" x="221.76" y="847.64" width="9.32" height="3.13"/>
                  <rect class="cls-18" x="236.75" y="847.64" width="9.32" height="3.13"/>
                </g>
                <path class="cls-21" d="M193.51,803.28h-19.09c-1.33,0-2.41,1.08-2.41,2.41v2.66s23.9,0,23.9,0v-2.66c0-1.33-1.08-2.41-2.41-2.41Z"/>
                <path class="cls-21" d="M274.32,803.28h19.09c1.33,0,2.41,1.08,2.41,2.41v2.66h-23.9v-2.66c0-1.33,1.08-2.41,2.41-2.41Z"/>
              </g>
              <g>
                <ellipse class="cls-18" cx="283.87" cy="837.3" rx="15.4" ry="16.18"/>
                <ellipse class="cls-18" cx="183.97" cy="837.3" rx="15.4" ry="16.18"/>
                <polygon class="cls-22" points="194.93 840.24 186.72 840.24 186.72 848.79 181.17 848.79 181.17 840.24 173 840.24 173 834.4 181.17 834.4 181.17 825.8 186.72 825.8 186.72 834.4 194.93 834.4 194.93 840.24"/>
                <g>
                  <path class="cls-22" d="M283.87,825.9c2.07,0,3.74,1.76,3.74,3.93s-1.68,3.93-3.74,3.93-3.74-1.76-3.74-3.93,1.68-3.93,3.74-3.93Z"/>
                  <path class="cls-22" d="M276.76,841.23c-2.07,0-3.74-1.76-3.74-3.93s1.68-3.94,3.74-3.94,3.74,1.76,3.74,3.94-1.68,3.93-3.74,3.93Z"/>
                  <path class="cls-22" d="M283.87,848.69c-2.07,0-3.74-1.76-3.74-3.93s1.68-3.93,3.74-3.93,3.74,1.76,3.74,3.93-1.68,3.93-3.74,3.93Z"/>
                  <path class="cls-22" d="M290.97,841.23c-2.07,0-3.74-1.76-3.74-3.93s1.68-3.94,3.74-3.94,3.74,1.76,3.74,3.94-1.68,3.93-3.74,3.93Z"/>
                </g>
              </g>
            </g>
          </g>
          <g>
            <rect class="cls-22" x="104.79" y="899.6" width="258.25" height="71.47"/>
            <rect class="cls-27" x="104.79" y="935.34" width="258.25" height="35.74"/>
            <rect class="cls-12" x="136.97" y="929.1" width="193.9" height="12.47"/>
          </g>
          <g>
            <g class="cls-28">
              <polygon class="cls-25" points="1303.59 193.39 1175.5 193.39 1133.42 237.59 917.03 237.59 843.33 315 843.33 521.32 1243.18 521.32 1303.59 457.86 1303.59 193.39"/>
            </g>
            <rect class="cls-26" x="872.06" y="437.57" width="169.64" height="55.92"/>
            <rect class="cls-26" x="1073.46" y="437.57" width="72.9" height="55.92"/>
            <g>
              <g>
                <polygon class="cls-6" points="1303.59 193.39 1175.5 193.39 1133.42 237.59 917.03 237.59 843.33 315 843.33 521.32 1243.18 521.32 1303.59 457.86 1303.59 193.39"/>
                <g>
                  <polyline class="cls-9" points="990.69 237.59 917.03 237.59 843.33 315 843.33 378.18"/>
                  <polyline class="cls-9" points="1191.17 521.32 1243.18 521.32 1303.59 457.86 1303.59 387.42"/>
                </g>
              </g>
              <g>
                <polygon class="cls-21" points="1073.95 188.49 1041.7 222.36 1058.99 222.36 1091.23 188.49 1073.95 188.49"/>
                <polygon class="cls-21" points="1102.83 188.49 1070.59 222.36 1087.87 222.36 1120.11 188.49 1102.83 188.49"/>
                <polygon class="cls-21" points="1131.71 188.49 1099.47 222.36 1116.75 222.36 1148.99 188.49 1131.71 188.49"/>
              </g>
            </g>
            <polygon class="cls-22" points="1016.19 188.49 983.94 222.36 1001.22 222.36 1033.47 188.49 1016.19 188.49"/>
            <polygon class="cls-22" points="1045.07 188.49 1012.82 222.36 1030.1 222.36 1062.35 188.49 1045.07 188.49"/>
            <g class="cls-28">
              <path class="cls-25" d="M961.72,389.49c-29.1,0-52.78-24.87-52.78-55.44s23.68-55.44,52.78-55.44,52.78,24.87,52.78,55.44-23.68,55.44-52.78,55.44ZM961.72,279.91c-28.42,0-51.54,24.29-51.54,54.14s23.12,54.14,51.54,54.14,51.54-24.29,51.54-54.14-23.12-54.14-51.54-54.14Z"/>
              <path class="cls-25" d="M1021.93,334.05h-3.37c0-32.92-25.5-59.71-56.84-59.71v-3.54c33.2,0,60.21,28.37,60.21,63.25Z"/>
              <path class="cls-25" d="M961.72,397.29c-33.2,0-60.21-28.37-60.21-63.25h3.37c0,32.92,25.5,59.71,56.84,59.71v3.54Z"/>
              <path class="cls-25" d="M961.72,306.88c-14.26,0-25.86,12.18-25.86,27.16s11.6,27.16,25.86,27.16,25.86-12.18,25.86-27.16-11.6-27.16-25.86-27.16ZM961.72,357.03c-12.07,0-21.89-10.31-21.89-22.99s9.82-22.99,21.89-22.99,21.89,10.31,21.89,22.99-9.82,22.99-21.89,22.99Z"/>
              <path class="cls-25" d="M961.72,294.39c-20.82,0-37.75,17.79-37.75,39.65s16.93,39.65,37.75,39.65,37.75-17.79,37.75-39.65-16.93-39.65-37.75-39.65ZM961.72,367.61c-17.62,0-31.95-15.06-31.95-33.56s14.33-33.56,31.95-33.56,31.95,15.06,31.95,33.56-14.33,33.56-31.95,33.56Z"/>
              <g>
                <path class="cls-25" d="M931.3,362.68c-5.69-6.66-9.45-15.17-10.29-24.58h-7.11c.87,11.46,5.41,21.83,12.38,29.86l5.02-5.27Z"/>
                <path class="cls-25" d="M920.91,331.99c.44-9.69,3.91-18.55,9.49-25.53l-5.02-5.27c-6.85,8.35-11.12,19.06-11.57,30.8h7.11Z"/>
                <path class="cls-25" d="M934.47,302.09c6.57-6.19,15.02-10.17,24.35-10.86v-7.46c-11.28.72-21.51,5.52-29.37,13.05l5.02,5.27Z"/>
                <path class="cls-25" d="M964.63,283.76v7.46c9.33.69,17.78,4.68,24.35,10.86l5.02-5.27c-7.86-7.53-18.09-12.34-29.37-13.05Z"/>
                <path class="cls-25" d="M958.81,376.86c-8.85-.66-16.94-4.26-23.36-9.91l-5.02,5.27c7.72,6.99,17.57,11.42,28.38,12.1v-7.46Z"/>
                <path class="cls-25" d="M993.05,306.46c5.58,6.98,9.05,15.84,9.49,25.53h7.11c-.45-11.74-4.72-22.46-11.57-30.8l-5.02,5.27Z"/>
                <path class="cls-25" d="M1002.44,338.1c-.84,9.41-4.6,17.92-10.29,24.58l5.02,5.27c6.97-8.03,11.5-18.39,12.38-29.86h-7.11Z"/>
                <path class="cls-25" d="M987.99,366.95c-6.41,5.66-14.5,9.26-23.36,9.91v7.46c10.81-.69,20.66-5.11,28.38-12.1l-5.02-5.27Z"/>
              </g>
              <path class="cls-25" d="M970.15,399.59l-1.18-9.23c.54-.08,1.08-.16,1.62-.26l1.44,9.19c-.63.11-1.26.21-1.89.3ZM975.79,398.51l-1.98-9.07c.53-.13,1.06-.26,1.59-.41l2.25,9.01c-.62.17-1.23.33-1.86.48ZM981.31,396.9l-2.76-8.85c.52-.18,1.04-.37,1.55-.56l3.03,8.75c-.6.23-1.21.45-1.82.66ZM986.68,394.76l-3.53-8.54c.5-.23,1-.47,1.5-.71l3.77,8.43c-.58.28-1.16.56-1.74.83ZM991.84,392.11l-4.26-8.17c.48-.28.96-.56,1.43-.85l4.48,8.03c-.55.34-1.1.67-1.66.99ZM996.74,388.98l-4.95-7.73c.46-.32.91-.65,1.36-.99l5.15,7.57c-.52.39-1.04.77-1.56,1.14ZM1001.34,385.41l-5.59-7.23c.42-.36.84-.73,1.26-1.11l5.8,7.04c-.48.44-.97.87-1.47,1.29ZM1005.62,381.41l-6.18-6.67c.39-.4.77-.8,1.15-1.21l6.38,6.46c-.44.48-.89.96-1.35,1.43ZM1009.53,377.03l-6.73-6.06c.36-.44.71-.88,1.05-1.32l6.9,5.84c-.4.52-.81,1.03-1.22,1.54ZM1013.05,372.3l-7.22-5.4c.32-.47.62-.94.92-1.41l7.38,5.15c-.35.56-.72,1.11-1.09,1.66ZM1016.16,367.24l-7.66-4.69c.27-.5.54-1,.8-1.5l7.79,4.44c-.3.59-.61,1.17-.93,1.74ZM1018.81,361.92l-8.03-3.94c.23-.52.45-1.04.67-1.57l8.14,3.68c-.25.61-.51,1.22-.78,1.82ZM1020.99,356.37l-8.34-3.15c.19-.54.36-1.08.53-1.63l8.43,2.88c-.2.64-.4,1.27-.62,1.9ZM1022.68,350.62l-8.58-2.33c.14-.56.27-1.12.39-1.68l8.64,2.06c-.14.65-.29,1.3-.45,1.95ZM1023.86,344.73l-8.75-1.5c.09-.56.17-1.13.24-1.7l8.79,1.21c-.08.67-.18,1.33-.28,1.99Z"/>
              <path class="cls-25" d="M953.29,268.51l1.18,9.23c-.54.08-1.08.16-1.62.26l-1.44-9.19c.63-.11,1.26-.21,1.89-.3ZM947.65,269.58l1.98,9.07c-.53.13-1.06.26-1.59.41l-2.25-9.01c.62-.17,1.23-.33,1.86-.48ZM942.13,271.19l2.76,8.85c-.52.18-1.04.37-1.55.56l-3.03-8.75c.6-.23,1.21-.45,1.82-.66ZM936.76,273.34l3.53,8.54c-.5.23-1,.47-1.5.71l-3.77-8.43c.58-.28,1.16-.56,1.74-.83ZM931.61,275.98l4.26,8.17c-.48.28-.96.56-1.43.85l-4.48-8.03c.55-.34,1.1-.67,1.66-.99ZM926.71,279.11l4.95,7.73c-.46.32-.91.65-1.36.99l-5.15-7.57c.52-.39,1.04-.77,1.56-1.14ZM922.11,282.68l5.59,7.23c-.42.36-.84.73-1.26,1.11l-5.8-7.04c.48-.44.97-.87,1.47-1.29ZM917.83,286.68l6.18,6.67c-.39.4-.77.8-1.15,1.21l-6.38-6.46c.44-.48.89-.96,1.35-1.43ZM913.91,291.06l6.73,6.06c-.36.44-.71.88-1.05,1.32l-6.9-5.84c.4-.52.81-1.03,1.22-1.54ZM910.39,295.8l7.22,5.4c-.32.47-.62.94-.92,1.41l-7.38-5.15c.35-.56.72-1.11,1.09-1.66ZM907.29,300.85l7.66,4.69c-.27.5-.54,1-.8,1.5l-7.79-4.44c.3-.59.61-1.17.93-1.74ZM904.64,306.17l8.03,3.94c-.23.52-.45,1.04-.67,1.57l-8.14-3.68c.25-.61.51-1.22.78-1.82ZM902.46,311.72l8.34,3.15c-.19.54-.36,1.08-.53,1.63l-8.43-2.88c.2-.64.4-1.27.62-1.9ZM900.77,317.47l8.58,2.33c-.14.56-.27,1.12-.39,1.68l-8.64-2.06c.14-.65.29-1.3.45-1.95ZM899.59,323.36l8.75,1.5c-.09.56-.17,1.13-.24,1.7l-8.79-1.21c.08-.67.18-1.33.28-1.99Z"/>
            </g>
            <g>
              <rect class="cls-26" x="1073.46" y="341.35" width="188.51" height="11.31"/>
              <rect class="cls-26" x="1073.46" y="363.66" width="188.51" height="11.31"/>
              <rect class="cls-26" x="1073.46" y="385.97" width="188.51" height="11.31"/>
              <rect class="cls-26" x="1146.36" y="264.84" width="57.81" height="11.31"/>
              <rect class="cls-26" x="1146.36" y="287.15" width="115.61" height="11.31"/>
              <rect class="cls-26" x="1146.36" y="309.45" width="115.61" height="11.31"/>
              <rect class="cls-26" x="1171.71" y="437.57" width="32.46" height="11.31"/>
              <rect class="cls-26" x="1171.71" y="459.88" width="64.92" height="11.31"/>
              <rect class="cls-26" x="1171.71" y="482.19" width="64.92" height="11.31"/>
              <rect class="cls-26" x="1073.46" y="408.28" width="188.51" height="11.31"/>
            </g>
            <ellipse class="cls-26" cx="1103.45" cy="292.8" rx="30" ry="31.51"/>
            <g class="cls-28">
              <ellipse class="cls-25" cx="1197.07" cy="217.18" rx="5.39" ry="5.67"/>
              <ellipse class="cls-25" cx="1229.09" cy="217.18" rx="5.39" ry="5.67"/>
              <ellipse class="cls-25" cx="1261.12" cy="217.18" rx="5.39" ry="5.67"/>
            </g>
          </g>
          <g>
            <g class="cls-28">
              <polygon class="cls-25" points="519.79 485.46 519.79 350.92 477.71 306.72 477.71 79.41 404.02 2 207.61 2 207.61 422.01 268.02 485.46 519.79 485.46"/>
            </g>
            <rect class="cls-26" x="238.98" y="222.15" width="53.39" height="53.24" transform="translate(514.45 -16.91) rotate(90)"/>
            <g>
              <rect class="cls-26" x="235.68" y="123.32" width="188.51" height="11.31"/>
              <rect class="cls-26" x="235.68" y="145.63" width="188.51" height="11.31"/>
              <rect class="cls-26" x="235.68" y="167.94" width="188.51" height="11.31"/>
              <rect class="cls-26" x="308.58" y="46.81" width="57.81" height="11.31"/>
              <rect class="cls-26" x="308.58" y="69.12" width="115.61" height="11.31"/>
              <rect class="cls-26" x="308.58" y="91.43" width="115.61" height="11.31"/>
              <rect class="cls-26" x="310.1" y="219.54" width="44.37" height="11.31"/>
              <rect class="cls-26" x="310.1" y="241.85" width="88.74" height="11.31"/>
              <rect class="cls-26" x="310.1" y="264.16" width="88.74" height="11.31"/>
              <rect class="cls-26" x="235.68" y="190.25" width="188.51" height="11.31"/>
              <rect class="cls-26" x="235.68" y="375.46" width="221.29" height="5.65"/>
              <rect class="cls-26" x="235.68" y="386.61" width="221.29" height="5.65"/>
            </g>
            <ellipse class="cls-26" cx="265.68" cy="74.77" rx="30" ry="31.51"/>
            <g>
              <g>
                <polygon class="cls-6" points="519.79 485.46 519.79 350.92 477.71 306.72 477.71 79.41 404.02 2 207.61 2 207.61 422.01 268.02 485.46 519.79 485.46"/>
                <g>
                  <polyline class="cls-9" points="477.71 156.79 477.71 79.41 404.02 2 343.87 2"/>
                  <polyline class="cls-9" points="207.61 367.38 207.61 422.01 268.02 485.46 335.07 485.46"/>
                </g>
              </g>
              <g>
                <polygon class="cls-21" points="524.46 244.25 492.21 210.37 492.21 228.53 524.46 262.4 524.46 244.25"/>
                <polygon class="cls-21" points="524.46 274.58 492.21 240.71 492.21 258.87 524.46 292.74 524.46 274.58"/>
                <polygon class="cls-21" points="524.46 304.92 492.21 271.05 492.21 289.2 524.46 323.08 524.46 304.92"/>
              </g>
            </g>
            <polygon class="cls-22" points="524.46 183.57 492.21 149.7 492.21 167.85 524.46 201.72 524.46 183.57"/>
            <polygon class="cls-22" points="524.46 213.91 492.21 180.04 492.21 198.19 524.46 232.06 524.46 213.91"/>
            <g class="cls-28">
              <ellipse class="cls-25" cx="491.75" cy="373.57" rx="5.39" ry="5.67"/>
              <ellipse class="cls-25" cx="491.75" cy="407.21" rx="5.39" ry="5.67"/>
              <ellipse class="cls-25" cx="491.75" cy="440.86" rx="5.39" ry="5.67"/>
            </g>
          </g>
          <g>
            <g class="cls-28">
              <rect class="cls-25" x="290.92" y="310.86" width="6.72" height="42.85"/>
              <rect class="cls-25" x="237.19" y="327.27" width="47.85" height="10.05"/>
              <rect class="cls-25" x="224.77" y="323.91" width="7.47" height="16.75"/>
            </g>
            <g>
              <polygon class="cls-26" points="302 322.59 423.55 316.6 442.69 331.06 302 331.06 302 322.59"/>
              <polygon class="cls-26" points="302 341.99 423.55 347.99 442.69 333.53 302 333.53 302 341.99"/>
            </g>
          </g>
          <g>
            <path class="cls-27" d="M988.41,872.73h271.36c9.86,0,17.86,8,17.86,17.86v80.48h-307.09v-80.48c0-9.86,8-17.86,17.86-17.86Z"/>
            <path class="cls-22" d="M1053.66,872.73h271.36c9.86,0,17.86,8,17.86,17.86v80.48h-307.09v-80.48c0-9.86,8-17.86,17.86-17.86Z"/>
            <ellipse class="cls-12" cx="1096.54" cy="921.9" rx="33.77" ry="35.47"/>
            <ellipse class="cls-22" cx="1096.54" cy="921.9" rx="14.38" ry="15.11"/>
            <ellipse class="cls-12" cx="1189.34" cy="921.9" rx="33.77" ry="35.47"/>
            <ellipse class="cls-22" cx="1189.34" cy="921.9" rx="14.38" ry="15.11"/>
            <ellipse class="cls-12" cx="1282.13" cy="921.9" rx="33.77" ry="35.47"/>
            <ellipse class="cls-22" cx="1282.13" cy="921.9" rx="14.38" ry="15.11"/>
          </g>
          <g>
            <g>
              <rect class="cls-22" x="1094.41" y="771.42" width="10.76" height="44.02"/>
              <rect class="cls-22" x="1113.4" y="771.42" width="10.76" height="44.02"/>
              <rect class="cls-22" x="1132.4" y="771.42" width="10.76" height="44.02"/>
              <rect class="cls-22" x="1151.39" y="771.42" width="10.76" height="44.02"/>
              <rect class="cls-22" x="1170.39" y="771.42" width="10.76" height="44.02"/>
              <rect class="cls-22" x="1189.38" y="771.42" width="10.76" height="44.02"/>
              <rect class="cls-22" x="1208.37" y="771.42" width="10.76" height="44.02"/>
              <rect class="cls-27" x="1227.37" y="771.42" width="10.76" height="44.02"/>
              <rect class="cls-27" x="1246.36" y="771.42" width="10.76" height="44.02"/>
              <rect class="cls-27" x="1265.36" y="771.42" width="10.76" height="44.02"/>
              <rect class="cls-27" x="1284.35" y="771.42" width="10.76" height="44.02"/>
              <rect class="cls-27" x="1303.34" y="771.42" width="10.76" height="44.02"/>
              <rect class="cls-27" x="1322.34" y="771.42" width="10.76" height="44.02"/>
            </g>
            <path class="cls-27" d="M1341.88,764.3v58.26h-256.25v-58.26h256.25M1342.88,763.3h-258.25v60.26h258.25v-60.26h0Z"/>
          </g>
          <g>
            <g>
              <rect class="cls-21" x="1094.41" y="677.27" width="10.76" height="44.02"/>
              <rect class="cls-21" x="1113.4" y="677.27" width="10.76" height="44.02"/>
              <rect class="cls-21" x="1132.4" y="677.27" width="10.76" height="44.02"/>
              <rect class="cls-21" x="1151.39" y="677.27" width="10.76" height="44.02"/>
              <rect class="cls-21" x="1170.39" y="677.27" width="10.76" height="44.02"/>
              <rect class="cls-21" x="1189.38" y="677.27" width="10.76" height="44.02"/>
              <rect class="cls-21" x="1208.37" y="677.27" width="10.76" height="44.02"/>
              <rect class="cls-27" x="1227.37" y="677.27" width="10.76" height="44.02"/>
              <rect class="cls-27" x="1246.36" y="677.27" width="10.76" height="44.02"/>
              <rect class="cls-27" x="1265.36" y="677.27" width="10.76" height="44.02"/>
              <rect class="cls-27" x="1284.35" y="677.27" width="10.76" height="44.02"/>
              <rect class="cls-27" x="1303.34" y="677.27" width="10.76" height="44.02"/>
              <rect class="cls-27" x="1322.34" y="677.27" width="10.76" height="44.02"/>
            </g>
            <path class="cls-27" d="M1341.88,670.15v58.26h-256.25v-58.26h256.25M1342.88,669.15h-258.25v60.26h258.25v-60.26h0Z"/>
          </g>
          <rect class="cls-26" x="122.27" y="412.88" width="249.03" height="142.74"/>
          <rect class="cls-26" x="291.74" y="510.45" width="177.56" height="101.77"/>
          <rect class="cls-26" x="445.25" y="45.96" width="232.43" height="142.74"/>
          <rect class="cls-26" x="935.87" y="165.02" width="249.03" height="169.03"/>
          <rect class="cls-26" x="1164.47" y="426.43" width="179.59" height="201.9"/>
          <rect class="cls-26" x="598.11" y="143.53" width="177.56" height="101.77"/>
          <g>
            <g>
              <ellipse class="cls-6" cx="122.27" cy="554.23" rx="79.17" ry="83.17"/>
              <path class="cls-7" d="M122.27,471.06c43.73,0,79.17,37.23,79.17,83.17,0,45.93-35.45,83.17-79.17,83.17s-79.17-37.23-79.17-83.17"/>
            </g>
            <text class="cls-20" transform="translate(88.51 571.14) scale(.95 1)"><tspan x="0" y="0">85%</tspan></text>
            <g>
              <ellipse class="cls-6" cx="122.27" cy="554.23" rx="61.85" ry="64.96"/>
              <path class="cls-7" d="M122.27,489.26c34.16,0,61.85,29.09,61.85,64.96,0,35.88-27.69,64.96-61.85,64.96s-61.85-29.09-61.85-64.96"/>
            </g>
          </g>
          <polyline class="cls-6" points="201.44 554.23 409.91 554.23 409.91 485.46"/>
          <g>
            <polygon class="cls-1" points="955.64 54.39 959.79 67.82 973.23 67.82 962.36 76.12 966.51 89.54 955.64 81.25 944.76 89.54 948.92 76.12 938.04 67.82 951.48 67.82 955.64 54.39"/>
            <polygon class="cls-1" points="998.67 54.39 1002.82 67.82 1016.26 67.82 1005.39 76.12 1009.54 89.54 998.67 81.25 987.8 89.54 991.95 76.12 981.08 67.82 994.52 67.82 998.67 54.39"/>
            <polygon class="cls-1" points="1041.7 54.39 1045.86 67.82 1059.3 67.82 1048.42 76.12 1052.58 89.54 1041.7 81.25 1030.83 89.54 1034.98 76.12 1024.11 67.82 1037.55 67.82 1041.7 54.39"/>
            <polygon class="cls-27" points="1084.74 54.39 1088.89 67.82 1102.33 67.82 1091.46 76.12 1095.61 89.54 1084.74 81.25 1073.86 89.54 1078.02 76.12 1067.14 67.82 1080.58 67.82 1084.74 54.39"/>
            <polygon class="cls-27" points="1127.77 54.39 1131.92 67.82 1145.36 67.82 1134.49 76.12 1138.64 89.54 1127.77 81.25 1116.9 89.54 1121.05 76.12 1110.18 67.82 1123.62 67.82 1127.77 54.39"/>
          </g>
          <g>
            <polygon class="cls-1" points="955.64 99.85 959.79 113.27 973.23 113.27 962.36 121.57 966.51 135 955.64 126.7 944.76 135 948.92 121.57 938.04 113.27 951.48 113.27 955.64 99.85"/>
            <polygon class="cls-1" points="998.67 99.85 1002.82 113.27 1016.26 113.27 1005.39 121.57 1009.54 135 998.67 126.7 987.8 135 991.95 121.57 981.08 113.27 994.52 113.27 998.67 99.85"/>
            <polygon class="cls-27" points="1041.7 99.85 1045.86 113.27 1059.3 113.27 1048.42 121.57 1052.58 135 1041.7 126.7 1030.83 135 1034.98 121.57 1024.11 113.27 1037.55 113.27 1041.7 99.85"/>
            <polygon class="cls-27" points="1084.74 99.85 1088.89 113.27 1102.33 113.27 1091.46 121.57 1095.61 135 1084.74 126.7 1073.86 135 1078.02 121.57 1067.14 113.27 1080.58 113.27 1084.74 99.85"/>
            <polygon class="cls-27" points="1127.77 99.85 1131.92 113.27 1145.36 113.27 1134.49 121.57 1138.64 135 1127.77 126.7 1116.9 135 1121.05 121.57 1110.18 113.27 1123.62 113.27 1127.77 99.85"/>
          </g>
          <g>
            <polygon class="cls-11" points="93.56 687.64 57.44 720.03 72 720.03 53.92 748.34 98.14 711.89 78.06 711.89 93.56 687.64"/>
            <polygon class="cls-11" points="139.16 687.64 103.05 720.03 117.61 720.03 99.52 748.34 143.74 711.89 123.66 711.89 139.16 687.64"/>
            <polygon class="cls-11" points="184.77 687.64 148.65 720.03 163.21 720.03 145.13 748.34 189.35 711.89 169.26 711.89 184.77 687.64"/>
          </g>
          <text class="cls-4" transform="translate(746.54 67.68) scale(.95 1)"><tspan class="cls-30" x="0" y="0">L</tspan><tspan class="cls-31" x="18.16" y="0">E</tspan><tspan class="cls-30" x="37.23" y="0">VEL UP</tspan></text>
          <text class="cls-4" transform="translate(254.27 696.14) scale(.95 1)"><tspan class="cls-30" x="0" y="0">UPG</tspan><tspan class="cls-33" x="67.45" y="0">R</tspan><tspan class="cls-29" x="87.86" y="0">ADE</tspan></text>
          <g>
            <text class="cls-2" transform="translate(1082.16 601.75) scale(.95 1)"><tspan x="0" y="0">POWER</tspan></text>
            <rect class="cls-22" x="1084.63" y="614.75" width="167.11" height="5.69"/>
            <rect class="cls-22" x="1084.63" y="628.33" width="167.11" height="5.69"/>
            <rect class="cls-22" x="1084.63" y="641.9" width="167.11" height="5.69"/>
          </g>
          <g>
            <polygon class="cls-1" points="955.64 8.94 959.79 22.37 973.23 22.37 962.36 30.67 966.51 44.09 955.64 35.79 944.76 44.09 948.92 30.67 938.04 22.37 951.48 22.37 955.64 8.94"/>
            <polygon class="cls-1" points="998.67 8.94 1002.82 22.37 1016.26 22.37 1005.39 30.67 1009.54 44.09 998.67 35.79 987.8 44.09 991.95 30.67 981.08 22.37 994.52 22.37 998.67 8.94"/>
            <polygon class="cls-1" points="1041.7 8.94 1045.86 22.37 1059.3 22.37 1048.42 30.67 1052.58 44.09 1041.7 35.79 1030.83 44.09 1034.98 30.67 1024.11 22.37 1037.55 22.37 1041.7 8.94"/>
            <polygon class="cls-1" points="1084.74 8.94 1088.89 22.37 1102.33 22.37 1091.46 30.67 1095.61 44.09 1084.74 35.79 1073.86 44.09 1078.02 30.67 1067.14 22.37 1080.58 22.37 1084.74 8.94"/>
            <polygon class="cls-1" points="1127.77 8.94 1131.92 22.37 1145.36 22.37 1134.49 30.67 1138.64 44.09 1127.77 35.79 1116.9 44.09 1121.05 30.67 1110.18 22.37 1123.62 22.37 1127.77 8.94"/>
          </g>
          <path class="cls-11" d="M1227.72,106.38c-3.53-2.86-10.4-2.88-13.64,2.63-3.24-5.51-10.1-5.5-13.64-2.63-3.16,2.56-3.68,6.7-3.24,9.72.87,5.95,5.44,10.15,16.88,18.9,11.44-8.75,16.01-12.95,16.88-18.9.44-3.02-.08-7.17-3.24-9.72Z"/>
          <path class="cls-11" d="M1274.54,106.38c-3.53-2.86-10.4-2.88-13.64,2.63-3.24-5.51-10.1-5.5-13.64-2.63-3.16,2.56-3.68,6.7-3.24,9.72.87,5.95,5.44,10.15,16.88,18.9,11.44-8.75,16.01-12.95,16.88-18.9.44-3.02-.08-7.17-3.24-9.72Z"/>
          <path class="cls-11" d="M1321.36,106.38c-3.53-2.86-10.4-2.88-13.64,2.63-3.24-5.51-10.1-5.5-13.64-2.63-3.16,2.56-3.68,6.7-3.24,9.72.87,5.95,5.44,10.15,16.88,18.9,11.44-8.75,16.01-12.95,16.88-18.9.44-3.02-.08-7.17-3.24-9.72Z"/>
          <path class="cls-11" d="M1260.9,8.94c-20.2,0-36.57,17.2-36.57,38.41v40.87h11.99v-7.53h10.19v7.53h9.39v-7.53h10.19v7.53h9.39v-7.53h10.19v7.53h11.8v-40.87c0-21.22-16.37-38.41-36.57-38.41ZM1251.03,56.77h-10.24v-21.25h10.24v21.25ZM1281,56.77h-10.24v-21.25h10.24v21.25Z"/>
          <g>
            <path class="cls-21" d="M1049.16,705.61l9.38-1.2v-10.25l-9.38-1.2s-.01,0-.02-.01c-.67-3.05-1.82-5.92-3.35-8.5,0,0,0-.02,0-.02l5.82-7.82-6.9-7.25-7.44,6.12s-.01,0-.02,0c-2.46-1.61-5.18-2.82-8.09-3.52,0,0-.01,0-.01,0-.02-.14-1.14-9.86-1.14-9.86h-9.76l-1.14,9.85s0,.01-.01.02c-2.91.71-5.63,1.91-8.09,3.52,0,0-.01,0-.02,0l-7.44-6.12-6.9,7.25,5.82,7.82s0,.01,0,.02c-1.54,2.58-2.68,5.45-3.35,8.5,0,0,0,.01-.02.01l-9.38,1.2v10.25h0l9.38,1.2s.01,0,.02.01c.67,3.05,1.82,5.92,3.35,8.5,0,0,0,.02,0,.02l-5.83,7.82,6.9,7.25,7.44-6.12s.01,0,.02,0c2.46,1.61,5.18,2.82,8.09,3.52,0,0,.01,0,.01.02l1.14,9.85h9.76l1.14-9.85s0-.01.01-.02c2.91-.71,5.63-1.91,8.09-3.52,0,0,.01,0,.02,0l7.44,6.12,6.9-7.25-5.83-7.82s0-.01,0-.02c1.54-2.58,2.68-5.45,3.35-8.5,0,0,0-.01.02-.01ZM1042.81,708.9c-1.96,4.81-5.72,8.75-10.3,10.81-3.11,1.4-6.3,2.08-9.42,2.08-5.69,0-11.12-2.28-15.29-6.66-6.45-6.78-8.12-16.72-4.36-25.95,1.96-4.81,5.71-8.75,10.3-10.82,8.79-3.96,18.26-2.2,24.71,4.58,6.45,6.78,8.12,16.72,4.36,25.95Z"/>
            <path class="cls-21" d="M1023.14,681.79c-2.39,0-4.84.53-7.22,1.6-3.42,1.54-6.23,4.48-7.69,8.08-2.88,7.06-1.62,14.64,3.28,19.79,4.9,5.15,12.12,6.47,18.84,3.45h0c3.42-1.54,6.22-4.48,7.69-8.08,2.88-7.06,1.62-14.64-3.28-19.79-3.16-3.32-7.28-5.05-11.61-5.05ZM1034.2,704.63c-1.1,2.7-3.19,4.89-5.76,6.05-10.73,4.83-20.98-5.94-16.39-17.21,1.1-2.7,3.19-4.89,5.76-6.05,10.73-4.83,20.98,5.94,16.39,17.21Z"/>
          </g>
          <g>
            <path class="cls-22" d="M1058.54,788.31l-9.38-1.2s-.01,0-.02-.01c-.67-3.05-1.82-5.92-3.35-8.5,0,0,0-.02,0-.02l5.82-7.82-6.9-7.25-7.44,6.12s-.01,0-.02,0c-2.46-1.61-5.18-2.82-8.09-3.52,0,0-.01,0-.01,0-.02-.14-1.14-9.86-1.14-9.86h-9.76l-1.14,9.85s0,.01-.01.02c-2.91.71-5.63,1.91-8.09,3.52,0,0-.01,0-.02,0l-7.44-6.12-6.9,7.25,5.82,7.82s0,.01,0,.02c-1.54,2.58-2.68,5.45-3.35,8.5,0,0,0,.01-.02.01l-9.38,1.2v10.25h0s9.38,1.2,9.38,1.2c0,0,.01,0,.02.01.67,3.05,1.82,5.92,3.35,8.5,0,0,0,.02,0,.02l-5.82,7.82,6.9,7.25,7.44-6.12s.01,0,.02,0c2.46,1.61,5.18,2.82,8.09,3.52,0,0,.01,0,.01.02l1.14,9.85h9.76l1.14-9.85s0-.01.01-.02c2.91-.71,5.63-1.91,8.09-3.52,0,0,.01,0,.02,0l7.44,6.12,6.9-7.25-5.82-7.82s0-.01,0-.02c1.54-2.58,2.68-5.45,3.35-8.5,0,0,0-.01.02-.01l9.38-1.2v-10.25ZM1030.17,808.61c-14.22,6.4-27.81-7.87-21.72-22.81,1.46-3.57,4.23-6.48,7.63-8.01,14.22-6.4,27.81,7.87,21.72,22.81-1.46,3.57-4.23,6.48-7.63,8.01Z"/>
            <path class="cls-22" d="M1025.96,799.39c-5.71,2.57-11.17-3.16-8.72-9.16.59-1.44,1.7-2.6,3.06-3.22,5.71-2.57,11.17,3.16,8.72,9.16-.59,1.44-1.7,2.6-3.06,3.22Z"/>
          </g>
          <g>
            <g>
              <path class="cls-21" d="M816.21,200.38l8.89,9.33c12.26-12.88,32.16-12.88,44.43,0l8.89-9.33c-17.17-18.04-45.03-18.04-62.2,0Z"/>
              <path class="cls-21" d="M798.44,181.71l8.89,9.33c22.08-23.19,57.89-23.19,79.97,0l8.89-9.33c-26.99-28.35-70.75-28.35-97.74,0Z"/>
            </g>
            <ellipse class="cls-21" cx="847.31" cy="219.05" rx="8.89" ry="9.34"/>
          </g>
        </g>
        <g>
          <g>
            <rect class="cls-1" x="113.16" y="260.29" width="16.94" height="100.59"/>
            <path class="cls-14" d="M121.63,310.58h0c-19.99,0-36.19-17.02-36.19-38.01v-58.62s72.38,0,72.38,0v58.62c0,21-16.2,38.01-36.19,38.01Z"/>
            <rect class="cls-1" x="82.84" y="348.9" width="77.58" height="31.28"/>
            <rect class="cls-14" x="104.02" y="355.87" width="35.23" height="17.32"/>
            <rect class="cls-14" x="74.07" y="380.17" width="95.14" height="8.69"/>
            <rect class="cls-1" x="77.49" y="205.27" width="88.28" height="8.69"/>
          </g>
          <g>
            <path class="cls-14" d="M114.98,269.39h-40.52c-4.5,0-8.16-3.84-8.16-8.57v-28.13c0-4.73,3.66-8.57,8.16-8.57h40.52v45.27ZM74.46,229.65c-1.6,0-2.89,1.37-2.89,3.04v28.13c0,1.68,1.3,3.04,2.89,3.04h35.26v-34.21h-35.26Z"/>
            <path class="cls-14" d="M168.81,269.39h-40.52v-45.27h40.52c4.5,0,8.16,3.84,8.16,8.57v28.13c0,4.73-3.66,8.57-8.16,8.57ZM133.55,263.86h35.26c1.6,0,2.89-1.37,2.89-3.04v-28.13c0-1.68-1.3-3.04-2.89-3.04h-35.26v34.21Z"/>
          </g>
        </g>
      </g>
    </g>
  </g>
</svg>